<svg viewBox="0 0 32 32" xmlns="http://www.w3.org/2000/svg" role="img" aria-label="Restaurant Manager logo">
  <path
    d="M4 9 a3 3 0 0 1 3 -3 h18 a3 3 0 0 1 3 3 v3 a2.5 2.5 0 0 0 0 5 v3 a2.5 2.5 0 0 0 0 5 v3 a3 3 0 0 1 -3 3 H7 a3 3 0 0 1 -3 -3 v-3 a2.5 2.5 0 0 0 0 -5 v-3 a2.5 2.5 0 0 0 0 -5 Z"
    fill="#1E3A63"
  />
  <line x1="9" y1="10" x2="23" y2="10" stroke="#1F1C19" stroke-width="1.4" stroke-linecap="round" opacity="0.55" />
  <line x1="9" y1="15" x2="23" y2="15" stroke="#1F1C19" stroke-width="1.4" stroke-linecap="round" opacity="0.55" />
  <line x1="9" y1="20" x2="17" y2="20" stroke="#1F1C19" stroke-width="1.4" stroke-linecap="round" opacity="0.55" />
</svg>
